<svg width="30" height="30" viewBox="0 0 30 30" fill="none" xmlns="http://www.w3.org/2000/svg">
<path fill-rule="evenodd" clip-rule="evenodd" d="M12.2654 2.86662C13.3326 2.86662 13.6647 2.87479 13.9626 2.9484C14.256 3.0209 14.5356 3.1404 14.7908 3.30227C15.0499 3.46664 15.2853 3.70099 16.0231 4.47227L25.5545 14.437C26.1372 15.0461 26.5242 15.452 26.7971 15.7878C27.061 16.1126 27.1506 16.2926 27.191 16.4238C27.3012 16.7819 27.297 17.1654 27.1788 17.521C27.1355 17.6512 27.0419 17.8292 26.7709 18.148C26.4905 18.4777 26.0947 18.8749 25.4986 19.471L19.471 25.4986C18.8749 26.0946 18.4778 26.4905 18.1481 26.7708C17.8293 27.0419 17.6512 27.1355 17.521 27.1788C17.1655 27.2969 16.7819 27.3012 16.4238 27.1909C16.2927 27.1506 16.1126 27.061 15.7879 26.797C15.452 26.5241 15.0462 26.1372 14.437 25.5545L4.47231 16.023C3.70104 15.2853 3.46669 15.0498 3.30232 14.7907C3.14045 14.5356 3.02095 14.2559 2.94845 13.9626C2.87483 13.6647 2.86667 13.3326 2.86667 12.2653V6.46662C2.86667 5.60674 2.8676 5.034 2.90356 4.59395C2.93837 4.1679 2.99993 3.97295 3.06286 3.84944C3.23543 3.51075 3.51079 3.23538 3.84949 3.06281C3.97299 2.99988 4.16795 2.93832 4.59399 2.90351C5.03405 2.86756 5.60679 2.86662 6.46667 2.86662H12.2654ZM14.5384 0.618503C13.9212 0.465964 13.278 0.466227 12.3971 0.466587L12.2654 0.466623H6.46667L6.41848 0.466622C5.61943 0.466604 4.948 0.466589 4.39856 0.511481C3.82409 0.558416 3.27814 0.660344 2.75991 0.924395C1.96963 1.32706 1.32711 1.96958 0.924441 2.75986C0.66039 3.27809 0.558462 3.82405 0.511526 4.39851C0.466635 4.94796 0.46665 5.61939 0.466668 6.41843L0.466669 6.46662V12.2653L0.466633 12.3971C0.466273 13.278 0.46601 13.9212 0.618549 14.5384C0.753185 15.0832 0.975116 15.6026 1.27573 16.0764C1.61632 16.6133 2.08131 17.0577 2.71812 17.6663L2.81338 17.7574L12.7781 27.2888L12.8125 27.3217C13.3782 27.8629 13.8541 28.3181 14.2743 28.6596C14.7141 29.017 15.1707 29.3163 15.7178 29.4847C16.5533 29.7419 17.4483 29.732 18.2779 29.4563C18.8211 29.2758 19.2709 28.9664 19.7027 28.5993C20.1152 28.2485 20.5809 27.7828 21.1345 27.2292L21.1681 27.1956L27.1957 21.168L27.2292 21.1345C27.7829 20.5809 28.2485 20.1152 28.5993 19.7026C28.9664 19.2709 29.2758 18.821 29.4563 18.2778C29.732 17.4482 29.742 16.5533 29.4848 15.7177C29.3164 15.1706 29.017 14.714 28.6596 14.2742C28.3181 13.854 27.8629 13.3781 27.3218 12.8124L27.2889 12.778L17.7574 2.81333L17.6664 2.71807C17.0577 2.08126 16.6133 1.61627 16.0765 1.27569C15.6026 0.97507 15.0832 0.753139 14.5384 0.618503ZM8.20003 10.3333C8.20003 9.15507 9.15516 8.19995 10.3334 8.19995C11.5116 8.19995 12.4667 9.15507 12.4667 10.3333C12.4667 11.5115 11.5116 12.4666 10.3334 12.4666C9.15516 12.4666 8.20003 11.5115 8.20003 10.3333ZM10.3334 5.79995C7.82968 5.79995 5.80003 7.82959 5.80003 10.3333C5.80003 12.837 7.82968 14.8666 10.3334 14.8666C12.8371 14.8666 14.8667 12.837 14.8667 10.3333C14.8667 7.82959 12.8371 5.79995 10.3334 5.79995Z" fill="#E84C4F"/>
</svg>
