<svg width="24" height="24" viewBox="0 0 24 24" fill="none" xmlns="http://www.w3.org/2000/svg">
<path d="M18.8051 3.99995C18.8051 3.55995 18.4451 3.19995 18.0051 3.19995H6.00508C5.56508 3.19995 5.20508 3.55995 5.20508 3.99995V20C5.20508 20.44 5.56508 20.7999 6.00508 20.7999H18.0051C18.4451 20.7999 18.8051 20.44 18.8051 20V3.99995ZM17.2051 19.2H6.80508V4.79995H17.2051V19.2ZM8.50508 15.8C8.50508 15.36 8.86508 15 9.30508 15H14.7051C15.1451 15 15.5051 15.36 15.5051 15.8C15.5051 16.24 15.1451 16.6 14.7051 16.6H9.30508C8.86508 16.6 8.50508 16.24 8.50508 15.8ZM8.62508 12C8.62508 11.56 8.98508 11.2 9.42508 11.2H14.6851C15.1251 11.2 15.4851 11.56 15.4851 12C15.4851 12.44 15.1251 12.8 14.6851 12.8H9.42508C8.98508 12.8 8.62508 12.44 8.62508 12ZM8.62508 8.19995C8.62508 7.75995 8.98508 7.39995 9.42508 7.39995H14.6851C15.1251 7.39995 15.4851 7.75995 15.4851 8.19995C15.4851 8.63995 15.1251 8.99995 14.6851 8.99995H9.42508C8.98508 8.99995 8.62508 8.63995 8.62508 8.19995Z" fill="#CACACA"/>
</svg>
