<svg width="51" height="51" viewBox="0 0 51 51" fill="none" xmlns="http://www.w3.org/2000/svg">
<path d="M22.5117 35.2617C23.375 34.3984 24.3711 33.9668 25.5 33.9668C26.6289 33.9668 27.625 34.3984 28.4883 35.2617C29.3516 36.125 29.7832 37.1211 29.7832 38.25C29.7832 39.3789 29.3516 40.375 28.4883 41.2383C27.625 42.1016 26.6289 42.5332 25.5 42.5332C24.3711 42.5332 23.375 42.1016 22.5117 41.2383C21.6484 40.375 21.2168 39.3789 21.2168 38.25C21.2168 37.1211 21.6484 36.125 22.5117 35.2617ZM22.5117 22.5117C23.375 21.6484 24.3711 21.2168 25.5 21.2168C26.6289 21.2168 27.625 21.6484 28.4883 22.5117C29.3516 23.375 29.7832 24.3711 29.7832 25.5C29.7832 26.6289 29.3516 27.625 28.4883 28.4883C27.625 29.3516 26.6289 29.7832 25.5 29.7832C24.3711 29.7832 23.375 29.3516 22.5117 28.4883C21.6484 27.625 21.2168 26.6289 21.2168 25.5C21.2168 24.3711 21.6484 23.375 22.5117 22.5117ZM28.4883 15.7383C27.625 16.6016 26.6289 17.0332 25.5 17.0332C24.3711 17.0332 23.375 16.6016 22.5117 15.7383C21.6484 14.875 21.2168 13.8789 21.2168 12.75C21.2168 11.6211 21.6484 10.625 22.5117 9.76172C23.375 8.89844 24.3711 8.4668 25.5 8.4668C26.6289 8.4668 27.625 8.89844 28.4883 9.76172C29.3516 10.625 29.7832 11.6211 29.7832 12.75C29.7832 13.8789 29.3516 14.875 28.4883 15.7383Z" fill="white"/>
</svg>
